HIERARCHY
ROOT Hips
{
	OFFSET 0.000000 0.000000 0.000000
	CHANNELS 6 Xposition Yposition Zposition Zrotation Yrotation Xrotation 
	JOINT LHipJoint
	{
		OFFSET 0.000000 0.000000 0.000000
		CHANNELS 3 Zrotation Yrotation Xrotation
		JOINT LeftUpLeg
		{
			OFFSET 1.363060 -1.794630 0.839290
			CHANNELS 3 Zrotation Yrotation Xrotation
			JOINT LeftLeg
			{
				OFFSET 2.448110 -6.726130 0.000000
				CHANNELS 3 Zrotation Yrotation Xrotation
				JOINT LeftFoot
				{
					OFFSET 2.562200 -7.039590 0.000000
					CHANNELS 3 Zrotation Yrotation Xrotation
					JOINT LeftToeBase
					{
						OFFSET 0.157640 -0.433110 2.322550
						CHANNELS 3 Zrotation Yrotation Xrotation
						End Site
						{
							OFFSET 0.000000 0.000000 0.000000
						}
					}
				}
			}
		}
	}
	JOINT RHipJoint
	{
		OFFSET 0.000000 0.000000 0.000000
		CHANNELS 3 Zrotation Yrotation Xrotation
		JOINT RightUpLeg
		{
			OFFSET -1.305520 -1.794630 0.839290
			CHANNELS 3 Zrotation Yrotation Xrotation
			JOINT RightLeg
			{
				OFFSET -2.542530 -6.985550 0.000000
				CHANNELS 3 Zrotation Yrotation Xrotation
				JOINT RightFoot
				{
					OFFSET -2.568260 -7.056230 0.000000
					CHANNELS 3 Zrotation Yrotation Xrotation
					JOINT RightToeBase
					{
						OFFSET -0.164730 -0.452590 2.363150
						CHANNELS 3 Zrotation Yrotation Xrotation
						End Site
						{
							OFFSET 0.000000 0.000000 0.000000
						}
					}
				}
			}
		}
	}
	JOINT LowerBack
	{
		OFFSET 0.000000 0.000000 0.000000
		CHANNELS 3 Zrotation Yrotation Xrotation
		JOINT Spine
		{
			OFFSET 0.028270 2.035590 -0.193380
			CHANNELS 3 Zrotation Yrotation Xrotation
			JOINT Spine1
			{
				OFFSET 0.056720 2.048850 -0.042750
				CHANNELS 3 Zrotation Yrotation Xrotation
				JOINT Neck
				{
					OFFSET 0.000000 0.000000 0.000000
					CHANNELS 3 Zrotation Yrotation Xrotation
					JOINT Neck1
					{
						OFFSET -0.054170 1.746240 0.172020
						CHANNELS 3 Zrotation Yrotation Xrotation
						JOINT Head
						{
							OFFSET 0.104070 1.761360 -0.123970
							CHANNELS 3 Zrotation Yrotation Xrotation
							End Site
							{
								OFFSET 0.000000 0.000000 0.000000
							}
						}
					}
				}
				JOINT LeftShoulder
				{
					OFFSET 0.000000 0.000000 0.000000
					CHANNELS 3 Zrotation Yrotation Xrotation
					JOINT LeftArm
					{
						OFFSET 3.362410 1.200890 -0.311210
						CHANNELS 3 Zrotation Yrotation Xrotation
						JOINT LeftForeArm
						{
							OFFSET 4.983000 -0.000000 -0.000000
							CHANNELS 3 Zrotation Yrotation Xrotation
							JOINT LeftHand
							{
								OFFSET 3.483560 -0.000000 -0.000000
								CHANNELS 3 Zrotation Yrotation Xrotation
								JOINT LeftFingerBase
								{
									OFFSET 0.000000 0.000000 0.000000
									CHANNELS 3 Zrotation Yrotation Xrotation
									JOINT LeftHandIndex1
									{
										OFFSET 0.715260 -0.000000 -0.000000
										CHANNELS 3 Zrotation Yrotation Xrotation
										End Site
										{
											OFFSET 0.000000 0.000000 0.000000
										}
									}
								}
								JOINT LThumb
								{
									OFFSET 0.000000 0.000000 0.000000
									CHANNELS 3 Zrotation Yrotation Xrotation
									End Site
									{
										OFFSET 0.000000 0.000000 0.000000
									}
								}
							}
						}
					}
				}
				JOINT RightShoulder
				{
					OFFSET 0.000000 0.000000 0.000000
					CHANNELS 3 Zrotation Yrotation Xrotation
					JOINT RightArm
					{
						OFFSET -3.136600 1.374050 -0.404650
						CHANNELS 3 Zrotation Yrotation Xrotation
						JOINT RightForeArm
						{
							OFFSET -5.241900 -0.000000 -0.000000
							CHANNELS 3 Zrotation Yrotation Xrotation
							JOINT RightHand
							{
								OFFSET -3.444170 -0.000000 -0.000000
								CHANNELS 3 Zrotation Yrotation Xrotation
								JOINT RightFingerBase
								{
									OFFSET 0.000000 0.000000 0.000000
									CHANNELS 3 Zrotation Yrotation Xrotation
									JOINT RightHandIndex1
									{
										OFFSET -0.622530 -0.000000 -0.000000
										CHANNELS 3 Zrotation Yrotation Xrotation
										End Site
										{
											OFFSET 0.000000 0.000000 0.000000
										}
									}
								}
								JOINT RThumb
								{
									OFFSET 0.000000 0.000000 0.000000
									CHANNELS 3 Zrotation Yrotation Xrotation
									End Site
									{
										OFFSET 0.000000 0.000000 0.000000
									}
								}
							}
						}
					}
				}
			}
		}
	}
}
MOTION
Frames: 12
Frame Time: 0.008333
0.352562 18.026998 13.505795 -5.616895 -6.164481 2.530350 0.045525 4.473025 2.927085 -10.889910 -6.652338 -30.348523 3.588732 12.557243 38.872967 -1.538666 7.245846 5.676862 0.008000 -0.575900 -1.582500 1.740633 -5.016109 5.145257 29.255265 7.044898 -6.476394 -1.100740 -5.882365 24.287614 1.018154 -4.322267 -0.700927 -0.034000 -1.191000 3.274500 4.761357 2.119466 5.832710 4.323428 3.441585 4.416454 -1.880237 1.531785 -8.313112 -4.753888 -3.790697 -16.122675 2.783099 -4.133446 19.092345 -0.331500 -1.660600 9.237700 -7.138684 2.908609 -1.273213 -81.170989 6.354796 25.003940 12.391183 -21.006396 -2.348474 -0.346456 -0.666656 -6.171713 27.955491 18.669380 10.121500 -7.125000 0.000000 0.000000 0.091800 51.682900 0.015100 10.997536 -1.774005 -2.273741 72.571333 6.918340 19.243948 -13.768421 26.766152 -3.869991 0.950868 -0.114190 -0.941970 -18.474535 19.486905 -6.716700 7.125000 0.000000 0.000000 5.735400 -9.469500 4.738100
0.357759 18.026551 13.598288 -5.680197 -6.218204 2.657078 -0.031102 4.447950 2.897329 -10.734067 -6.687057 -30.301629 3.197432 12.155850 37.336215 -1.667767 7.768384 6.034268 0.003515 -0.232097 -0.637716 1.766329 -5.017106 5.172688 29.216510 7.008486 -6.233997 -1.074336 -5.831666 24.160287 0.926291 -4.041062 -0.744545 -0.057212 -1.516581 4.171964 4.870214 2.126571 5.750555 4.325362 3.455211 4.431290 -1.930554 1.541248 -8.251006 -4.842396 -3.791544 -16.247632 2.827820 -4.104078 19.051527 -0.303018 -1.649667 9.249474 -7.143791 2.913804 -1.276887 -81.287713 6.357175 24.758053 12.317847 -20.904715 -2.315673 -0.348611 -0.693394 -5.718245 28.055817 20.205906 10.930490 -7.125000 0.000000 0.000000 -0.143793 53.418116 -0.037603 10.993359 -1.760975 -2.265609 72.468692 7.230864 19.518347 -13.894128 26.929259 -3.926317 0.952313 -0.111743 -1.037836 -18.625755 19.523510 -6.784709 7.125000 0.000000 0.000000 5.639021 -9.413041 4.663979
0.362558 18.025536 13.690623 -5.744234 -6.271140 2.780769 -0.108278 4.422821 2.867319 -10.573691 -6.724379 -30.250075 2.808598 11.749189 35.797039 -1.791221 8.268625 6.386450 0.000085 0.012316 0.033946 1.791818 -5.018715 5.200327 29.185168 6.975858 -5.980012 -1.048744 -5.781348 24.033812 0.846830 -3.800767 -0.819051 -0.076104 -1.779818 4.897599 4.976752 2.138412 5.684488 4.322062 3.476045 4.436156 -1.984090 1.553203 -8.203595 -4.916811 -3.800201 -16.366707 2.869228 -4.089191 19.029540 -0.279244 -1.644182 9.265362 -7.148666 2.919392 -1.279998 -81.394385 6.349177 24.525228 12.236623 -20.790106 -2.279961 -0.349372 -0.720465 -5.244298 28.075152 21.774472 11.709145 -7.125000 0.000000 0.000000 -0.503152 55.166376 -0.137507 10.989606 -1.748331 -2.257358 72.374225 7.533132 19.772036 -14.014833 27.085409 -3.979803 0.954472 -0.111440 -1.146907 -18.774207 19.615400 -6.871320 7.125000 0.000000 0.000000 5.547993 -9.297125 4.600767
0.365910 18.022462 13.782388 -5.810930 -6.321231 2.893461 -0.187439 4.397499 2.836394 -10.396901 -6.771124 -30.181649 2.428692 11.323455 34.249092 -1.894227 8.688134 6.719719 0.000477 -0.103126 -0.283280 1.816555 -5.022542 5.228716 29.180665 6.956933 -5.684071 -1.026086 -5.732406 23.910428 0.812272 -3.708591 -1.005387 -0.079356 -1.817326 5.001099 5.074897 2.167400 5.676668 4.299810 3.522976 4.404922 -2.049285 1.574182 -8.209397 -4.940194 -3.837139 -16.464485 2.898636 -4.126737 19.075740 -0.272516 -1.658423 9.296142 -7.152699 2.926406 -1.281070 -81.464668 6.303607 24.339691 12.126837 -20.628692 -2.233706 -0.345086 -0.748741 -4.696198 27.801249 23.459044 12.377968 -7.125000 0.000000 0.000000 -1.310628 56.961864 -0.408310 10.987389 -1.737083 -2.248674 72.309354 7.798261 19.950744 -14.117430 27.216373 -4.023006 0.959217 -0.118896 -1.303789 -18.912631 19.907459 -7.025279 7.125000 0.000000 0.000000 5.476339 -8.965938 4.577051
0.370207 18.022944 13.877371 -5.878053 -6.383927 3.003802 -0.266678 4.373744 2.805098 -10.214773 -6.839291 -30.102732 2.061236 10.895793 32.725478 -1.987740 9.068052 7.022703 0.004364 -0.324715 -0.892327 1.839735 -5.029478 5.261299 29.158424 6.927092 -5.342910 -0.999444 -5.677218 23.770559 0.759201 -3.578748 -1.337576 -0.071663 -1.712941 4.713329 5.183788 2.191290 5.630075 4.273551 3.562049 4.370020 -2.120054 1.592265 -8.194360 -4.965210 -3.862402 -16.493238 2.913466 -4.153329 19.085918 -0.268676 -1.670480 9.304645 -7.154141 2.930668 -1.281758 -81.529238 6.327644 24.164995 12.028555 -20.479959 -2.193972 -0.340197 -0.764548 -4.272024 27.463415 24.477838 12.689666 -7.125000 0.000000 0.000000 -2.000576 58.005778 -0.637349 10.985963 -1.728310 -2.242890 72.241618 8.019528 20.178360 -14.212556 27.336840 -4.060814 0.966181 -0.128203 -1.466345 -19.104097 20.257716 -7.222315 7.125000 0.000000 0.000000 5.374764 -8.564519 4.534018
0.375740 18.028086 13.976569 -5.945735 -6.463142 3.111062 -0.346019 4.352042 2.773318 -10.025650 -6.935525 -30.010066 1.710097 10.465603 31.233752 -2.068815 9.396094 7.286004 0.012831 -0.685393 -1.883759 1.860875 -5.040491 5.299375 29.112939 6.882948 -4.942495 -0.967579 -5.613846 23.609091 0.681872 -3.399546 -1.860880 -0.049628 -1.422627 3.912861 5.306762 2.208498 5.532677 4.242041 3.590823 4.330312 -2.198127 1.606555 -8.152019 -4.992367 -3.872368 -16.431544 2.909190 -4.165567 19.048896 -0.268620 -1.679675 9.283956 -7.152187 2.931325 -1.281942 -81.586320 6.442891 24.004506 11.945345 -20.347842 -2.162783 -0.334515 -0.764016 -4.010235 27.041810 24.624232 12.533407 -7.125000 0.000000 0.000000 -2.536520 58.064873 -0.811661 10.985576 -1.722783 -2.240905 72.170129 8.183320 20.470065 -14.297892 27.443551 -4.091552 0.976053 -0.139933 -1.636335 -19.365065 20.684233 -7.475793 7.125000 0.000000 0.000000 5.233979 -8.071074 4.465672
0.380402 18.034207 14.072575 -5.996852 -6.508024 3.248894 -0.419299 4.327419 2.734939 -9.820135 -7.099625 -29.957216 1.373215 10.033978 29.771557 -2.112604 9.594500 7.540734 0.021369 -0.930533 -2.557841 1.880667 -5.058449 5.348380 29.039438 6.903001 -4.415953 -0.928625 -5.535086 23.408264 0.551037 -3.022887 -2.100079 -0.115941 -2.000164 5.513338 5.365122 2.199584 5.387514 4.237097 3.573633 4.320523 -2.217779 1.604867 -8.074936 -5.136702 -3.882582 -16.403965 3.036162 -4.165232 18.972404 -0.209083 -1.677986 9.260064 -7.150655 2.936104 -1.282944 -81.687538 6.518394 23.753997 11.839436 -20.177221 -2.125945 -0.335662 -0.748676 -3.978312 26.881145 23.868012 12.103845 -7.125000 0.000000 0.000000 -2.466449 57.201476 -0.747032 10.985731 -1.711062 -2.232684 72.109988 8.464020 20.690751 -14.358772 27.515460 -4.114275 0.979371 -0.150330 -1.768065 -19.435727 21.007497 -7.617592 7.125000 0.000000 0.000000 5.212447 -7.713189 4.484909
0.384593 18.040858 14.166855 -6.039020 -6.534359 3.403241 -0.489303 4.301218 2.692995 -9.605765 -7.300388 -29.925875 1.044035 9.601578 28.325316 -2.136249 9.722873 7.790834 0.029948 -1.113255 -3.060481 1.899731 -5.080161 5.403288 28.950800 6.957735 -3.821272 -0.885843 -5.448013 23.186176 0.391298 -2.539557 -2.185796 -0.229981 -3.046542 8.410878 5.388575 2.176557 5.216546 4.246505 3.531611 4.326898 -2.205869 1.594547 -7.979085 -5.344341 -3.892930 -16.394816 3.234037 -4.158105 18.874588 -0.117414 -1.670417 9.234442 -7.149353 2.943112 -1.284386 -81.812599 6.572427 23.454856 11.721264 -19.985799 -2.086056 -0.340498 -0.725334 -4.070569 26.861449 22.624172 11.526636 -7.125000 0.000000 0.000000 -2.068990 55.839722 -0.553321 10.986180 -1.695995 -2.221095 72.055976 8.807876 20.873070 -14.406439 27.568566 -4.132669 0.979149 -0.160006 -1.879125 -19.403580 21.274981 -7.699057 7.125000 0.000000 0.000000 5.255338 -7.428537 4.551460
0.387624 18.020319 14.250928 -6.158525 -6.539294 3.575658 -0.545804 4.258369 2.644642 -9.273060 -7.528486 -29.981349 0.744607 9.179282 26.929727 -2.144497 9.812999 8.058285 0.040467 -1.288940 -3.544338 1.932456 -5.070576 5.419269 29.041885 6.881138 -3.735772 -0.836709 -5.345427 22.879337 0.531730 -2.896585 -1.675046 -0.186960 -2.746737 7.576810 5.455521 2.176470 5.196008 4.273829 3.534863 4.307551 -2.217441 1.597193 -7.972955 -5.405086 -3.891413 -16.629966 3.290235 -4.121071 18.895867 -0.087385 -1.650617 9.282011 -7.150843 2.955744 -1.283634 -81.855047 6.584549 23.469906 11.607982 -19.803750 -2.049467 -0.343895 -0.700657 -4.522330 26.907297 21.149589 10.858325 -7.125000 0.000000 0.000000 -1.609891 54.226117 -0.379995 10.976257 -1.683288 -2.208348 72.036220 9.135674 20.959372 -14.543575 27.746233 -4.201573 0.971821 -0.163163 -2.127127 -19.166218 21.441887 -7.657727 7.125000 0.000000 0.000000 5.424762 -7.282697 4.715471
0.390524 17.996565 14.333834 -6.298077 -6.547313 3.746612 -0.599380 4.213816 2.595841 -8.916034 -7.755010 -30.044310 0.451982 8.758411 25.544869 -2.149674 9.893965 8.320553 0.050221 -1.446586 -3.978592 1.966341 -5.057332 5.430355 29.166077 6.791383 -3.706378 -0.786945 -5.240320 22.561325 0.708770 -3.357203 -1.100592 -0.124000 -2.269292 6.250621 5.539950 2.183533 5.203972 4.305030 3.551199 4.282434 -2.239679 1.604525 -7.982864 -5.420409 -3.886978 -16.859247 3.309943 -4.087042 18.901221 -0.075987 -1.633489 9.322477 -7.152728 2.966742 -1.282598 -81.884681 6.586881 23.522057 11.491123 -19.616774 -2.011591 -0.347181 -0.677419 -4.968337 26.955966 19.748363 10.223675 -7.125000 0.000000 0.000000 -1.178991 52.692140 -0.223183 10.965343 -1.673103 -2.197077 72.023423 9.448747 21.027128 -14.692217 27.939887 -4.276764 0.963933 -0.166179 -2.383060 -18.912018 21.611458 -7.609678 7.125000 0.000000 0.000000 5.605434 -7.136760 4.889754
0.393989 17.984047 14.421408 -6.527592 -6.626947 3.869847 -0.643670 4.179106 2.553154 -8.492392 -7.916511 -30.040363 0.183805 8.335952 24.192114 -2.147229 9.938856 8.494772 0.048034 -1.414740 -3.890792 1.989484 -5.057461 5.454256 29.348616 6.782368 -3.420871 -0.741156 -5.133930 22.265422 0.774325 -3.518028 -0.848741 -0.110600 -2.141292 5.896390 5.744402 2.230743 5.269633 4.348511 3.635285 4.237425 -2.340448 1.641747 -8.016464 -5.182705 -3.870514 -16.599006 3.167442 -4.138524 18.521873 -0.165974 -1.667466 9.156518 -7.154171 2.949715 -1.282197 -81.914384 6.552470 23.443929 11.325790 -19.358460 -1.953606 -0.351743 -0.672582 -4.726230 26.922436 19.567754 10.123484 -7.125000 0.000000 0.000000 -1.170357 52.485533 -0.215670 10.961350 -1.687030 -2.204327 72.029008 9.625032 21.054118 -14.814260 28.096181 -4.334622 0.962121 -0.178934 -2.490081 -18.825594 21.985360 -7.699553 7.125000 0.000000 0.000000 5.692338 -6.748889 5.009793
0.398105 17.973980 14.512269 -6.716477 -6.708488 3.983670 -0.691092 4.148950 2.512146 -8.104797 -8.120385 -30.012547 -0.073637 7.915604 22.870487 -2.147709 9.978687 8.602790 0.047939 -1.412952 -3.885819 2.010846 -5.061740 5.482905 29.473209 6.772263 -3.097463 -0.694625 -5.029308 21.974834 0.813732 -3.610312 -0.691588 -0.099844 -2.037492 5.609222 5.924578 2.276686 5.296544 4.376306 3.712322 4.209925 -2.432611 1.677672 -8.021352 -4.997846 -3.864938 -16.404025 3.064778 -4.189050 18.212060 -0.235108 -1.698296 9.024502 -7.156481 2.936699 -1.282641 -81.945842 6.504104 23.325439 11.175510 -19.124747 -1.899777 -0.353725 -0.675892 -4.298222 26.778905 19.901079 10.212045 -7.125000 0.000000 0.000000 -1.416183 52.822173 -0.287321 10.958544 -1.695834 -2.208640 72.024882 9.812116 21.060974 -14.903709 28.207796 -4.373925 0.963291 -0.195674 -2.528427 -18.823734 22.432642 -7.851286 7.125000 0.000000 0.000000 5.731409 -6.269988 5.096778
